<?xml version="1.0" encoding="UTF-8"?>
<!DOCTYPE svg PUBLIC "-//W3C//DTD SVG 1.1//EN" "http://www.w3.org/Graphics/SVG/1.1/DTD/svg11.dtd">
<!-- Creator: CorelDRAW 2018 (64-Bit) -->
<svg xmlns="http://www.w3.org/2000/svg" xml:space="preserve" width="330.425mm" height="56.109mm" version="1.1" style="shape-rendering:geometricPrecision; text-rendering:geometricPrecision; image-rendering:optimizeQuality; fill-rule:evenodd; clip-rule:evenodd"
viewBox="0 0 10729.57 1821.98"
 xmlns:xlink="http://www.w3.org/1999/xlink">
 <defs>
  <style type="text/css">
   <![CDATA[
    .fil0 {fill:#11A098;fill-rule:nonzero}
   ]]>
  </style>
 </defs>
 <g id="Слой_x0020_1">
  <metadata id="CorelCorpID_0Corel-Layer"/>
  <path class="fil0" d="M3580.35 1513.38l345.45 0c206.87,0 300.62,-86.51 300.62,-247.01 0,-142.73 -92.11,-233.8 -302.77,-233.8l-343.31 0 0 480.8zm353.88 -776.6c181.91,0 257.07,-81.55 257.07,-205.96 0,-129.79 -98.4,-196.71 -246.1,-196.71l-364.86 0 0 402.67 353.88 0zm-729.67 -698.42l773.64 0c427.82,0 590.13,223.04 590.13,453.06 0,199.67 -105.78,329.23 -225.37,383.99 119.35,44.92 276.02,170.79 276.02,403.58 0,302.99 -238.03,530.14 -614.69,530.14l-799.74 0 0 -1770.77z"/>
  <polygon class="fil0" points="4917.65,1809.13 5300.54,1809.13 5300.54,38.35 4917.65,38.35 "/>
  <path class="fil0" d="M6029.41 903.24c0,345.73 151.7,607.26 465.54,607.26 340.63,0 461.12,-285.27 461.12,-600.75 0,-335.06 -137.12,-598.29 -467.27,-598.29 -319.85,0 -459.39,247.1 -459.39,591.77zm1322.08 1.59c0,492.92 -295.89,917.14 -870.94,917.14 -555.69,0 -846.57,-403.81 -846.57,-911.08 0,-515.24 321.22,-910.9 871.31,-910.9 518.02,0 846.21,362.9 846.21,904.84z"/>
  <path class="fil0" d="M8060.34 795.91l321.13 0c209.6,0 290.38,-79.72 290.38,-227.87 0,-143.96 -94.07,-224.64 -281.35,-224.64l-330.15 0 0 452.51zm0 304.68l0 708.76 -374.1 0 0 -1770.63 778.01 0c386.18,0 593.96,212.57 593.96,486.13 0,237.62 -129.29,366.27 -257.26,418.94 87.65,32.3 219.95,123.6 219.95,440.57l0 87.42c0,119.13 1.05,254.61 25.42,337.57l-362.81 0c-31.16,-77.08 -36.99,-209.51 -36.99,-397.61l0 -25.88c0,-193.61 -48.93,-285.27 -334.24,-285.27l-251.93 0z"/>
  <path class="fil0" d="M9673.95 1277.26c40.45,177.76 167.97,255.8 372.88,255.8 204.36,0 291.79,-80.77 291.79,-210.33 0,-144.09 -85.37,-206.64 -388.09,-277.07 -481.94,-113.21 -601.07,-288.46 -601.07,-527.54 0,-308.6 230.79,-518.11 650.08,-518.11 470.1,0 657.42,252.7 682.75,511.69l-385.73 0c-18.54,-108.92 -78.81,-227.37 -307,-227.37 -155.44,0 -249.28,64.23 -249.28,189.92 0,123.14 75.26,173.07 361.31,239.4 515.06,121.32 627.99,312.97 627.99,562.57 0,323.41 -244.68,545.17 -712.73,545.17 -449.41,0 -686.21,-221.31 -728.58,-544.12l385.68 0z"/>
  <path class="fil0" d="M1507.95 577.42l-282.27 0c-70.84,0 -128.29,-57.49 -128.29,-128.28l0 -282.27c0,-70.89 57.45,-128.29 128.29,-128.29l282.27 0c70.88,0 128.28,57.4 128.28,128.29l0 282.27c0,70.79 -57.4,128.28 -128.28,128.28z"/>
  <path class="fil0" d="M1508.09 1809.13l-282.27 0c-70.84,0 -128.28,-57.49 -128.28,-128.28l0 -282.27c0,-70.93 57.45,-128.29 128.28,-128.29l282.27 0c70.84,0 128.29,57.36 128.29,128.29l0 282.27c0,70.79 -57.45,128.28 -128.29,128.28z"/>
  <path class="fil0" d="M2200.77 1270.29l-436.2 0c-70.84,0 -128.29,-57.54 -128.29,-128.33l0 -436.2c0,-70.93 57.45,-128.33 128.29,-128.33l436.2 0c70.89,0 128.33,57.4 128.33,128.33l0 436.2c0,70.79 -57.45,128.33 -128.33,128.33z"/>
  <path class="fil0" d="M564.53 1270.29l-436.25 0c-70.84,0 -128.28,-57.54 -128.28,-128.33l0 -436.2c0,-70.93 57.45,-128.33 128.28,-128.33l436.25 0c70.89,0 128.29,57.4 128.29,128.33l0 436.2c0,70.79 -57.4,128.33 -128.29,128.33z"/>
 </g>
</svg>
