<?xml version="1.0" encoding="UTF-8"?> <svg xmlns="http://www.w3.org/2000/svg" xmlns:xlink="http://www.w3.org/1999/xlink" id="Layer_1" data-name="Layer 1" viewBox="0 0 985.23 573.13"> <defs> <style>.cls-1{fill:#9fc937;}.cls-2{fill:#fcd41c;}.cls-3{fill:url(#Безымянный_градиент_7);}.cls-4{fill:#c2da4e;}.cls-5{fill:#e4a51a;}.cls-6{fill:#337aa6;}.cls-7{fill:#f55929;}.cls-8{fill:#f6b269;}.cls-9{fill:#1886c3;}.cls-10{fill:#31c4f8;}.cls-11{fill:#1d82ba;}.cls-12{fill:#5fc2ae;}.cls-13{fill:#b42636;}.cls-14{fill:#6a59c9;}.cls-15{fill:#8d60bd;}.cls-16{fill:#571dbd;}.cls-17{fill:#f3514e;}.cls-18{fill:#ec2d7a;}.cls-19{fill:#d51965;}.cls-20{fill:#e72d32;}.cls-21{fill:#a01c27;}.cls-22{fill:#f6a347;}.cls-23{fill:url(#Безымянный_градиент_3);}.cls-24{fill:#36b741;}.cls-25{fill:url(#Безымянный_градиент_4);}.cls-26{fill:#5b9620;}.cls-27{fill:url(#Безымянный_градиент_5);}.cls-28{fill:url(#Безымянный_градиент_6);}</style> <linearGradient id="Безымянный_градиент_7" x1="876.07" y1="-34.72" x2="1002.34" y2="89.85" gradientTransform="matrix(0.72, 0, 0, 0.72, 110.36, 141.8)" gradientUnits="userSpaceOnUse"> <stop offset="0" stop-color="#bdec39"></stop> <stop offset="1" stop-color="#68831f"></stop> </linearGradient> <linearGradient id="Безымянный_градиент_3" x1="-173.1" y1="1375.12" x2="-455.33" y2="1276.35" gradientTransform="matrix(0.36, 0, 0, 0.36, 494.63, -263.34)" gradientUnits="userSpaceOnUse"> <stop offset="0" stop-color="#32352c"></stop> <stop offset="1" stop-color="#5d5d5f"></stop> </linearGradient> <linearGradient id="Безымянный_градиент_4" x1="932.5" y1="420.72" x2="997.57" y2="335.34" gradientTransform="matrix(0.72, 0, 0, 0.72, 110.36, 141.8)" gradientUnits="userSpaceOnUse"> <stop offset="0" stop-color="#5d5d5f"></stop> <stop offset="1" stop-color="#68831f"></stop> </linearGradient> <linearGradient id="Безымянный_градиент_5" x1="101.31" y1="1599.54" x2="225.32" y2="1723.56" gradientTransform="matrix(0.36, 0, 0, 0.36, 494.63, -263.34)" gradientUnits="userSpaceOnUse"> <stop offset="0" stop-opacity="0.72"></stop> <stop offset="1" stop-opacity="0"></stop> </linearGradient> <linearGradient id="Безымянный_градиент_6" x1="-101.18" y1="1457.32" x2="-231.94" y2="1279.56" gradientTransform="matrix(0.36, 0, 0, 0.36, 494.63, -263.34)" gradientUnits="userSpaceOnUse"> <stop offset="0" stop-opacity="0.7"></stop> <stop offset="1" stop-opacity="0"></stop> </linearGradient> </defs> <g id="_1" data-name=" 1"> <path class="cls-1" d="M705.59.48l-.24.47L705.82,161,786.1,80.75Z" transform="translate(-6.91)"></path> <path class="cls-2" d="M705.35,1V.24L625.55,81l80.27,80.52h0Z" transform="translate(-6.91)"></path> <path class="cls-3" d="M705.35,0V.71l.24-.47L705.35,0m.47,161h0l3.1,3.1-3.1-3.1M831.58,286.81l-3.09-3.1,3.09,3.1h0l80.27,80.27h0l80.29-80.27h-.24l-80,80.27-80.27-80.27h0Z" transform="translate(-6.91)"></path> <path class="cls-4" d="M912.1,206.77,786.1,80.52,705.82,161l3.1,3.1L828.49,284l3.09,3.09h.48Z" transform="translate(-6.91)"></path> <path class="cls-5" d="M705.1,161.51l.72-.24L625.55,80.75,501.2,205.34l-1.67,1.43L579.8,287h0Z" transform="translate(-6.91)"></path> <path class="cls-6" d="M579.8,287l-80.28,80.28,126,126,80.28-80.27-.71.47h0v-.95Z" transform="translate(-6.91)"></path> <path class="cls-7" d="M419.25,287l-1.43,1.67L299.18,407.34l-5.48,5.72,80,80,126-125.78Z" transform="translate(-6.91)"></path> <path class="cls-8" d="M579.8,286.81H419.25l80.27,80.27Z" transform="translate(-6.91)"></path> <path class="cls-9" d="M579.8,286.81h0M293.46,413.06h0l5.72-6-5.72,6Z" transform="translate(-6.91)"></path> <path class="cls-10" d="M705.8,413.06,706,573.13l79.8-80-80-80m0,0-.47.47.47-.47Z" transform="translate(-6.91)"></path> <path class="cls-11" d="M625.52,493.33l80.75,79.8-.47-160.07-80.28,80.27m79.81-79.8.47-.47-.71-.72.24,1.19Z" transform="translate(-6.91)"></path> <path class="cls-12" d="M831.82,287l-5.48,5.48L705.8,412.82h0l80,80L808.94,470h.24l97.2-97.43,5.47-5.48Z" transform="translate(-6.91)"></path> <path class="cls-13" d="M293,161.51v-.72L213,81,87,206.77,167.22,287l8.58-8.33c8.34-8.34,16.44-16.68,24.54-25Z" transform="translate(-6.91)"></path> <path class="cls-14" d="M292.78,1,213,81l80,79.8Z" transform="translate(-6.91)"></path> <path class="cls-15" d="M293.73,0l-1,.71L293,160.55v.72l.23-.24,80.29-80.28L292.78,1Z" transform="translate(-6.91)"></path> <path class="cls-16" d="M419,286.81h0l80.52-80.28-126-125.78L293.24,161Z" transform="translate(-6.91)"></path> <path class="cls-17" d="M293.46,413.06h-.23l-.24-.48V573.13h0l.71-.47,79.81-79.8Z" transform="translate(-6.91)"></path> <path class="cls-18" d="M213.18,493.33l79.8,79.8V413.53Z" transform="translate(-6.91)"></path> <path class="cls-19" d="M167.46,287,87.18,367.32l126,126L293,413.53v-.95Z" transform="translate(-6.91)"></path> <path class="cls-20" d="M6.91,286.81H167.22l-80-80.28Z" transform="translate(-6.91)"></path> <path class="cls-21" d="M167.46,287h0l-.24-.23H6.91l80.51,80.51Z" transform="translate(-6.91)"></path> <path class="cls-22" d="M419.48,286.81H579.8l-80.27-80.28Z" transform="translate(-6.91)"></path> <path class="cls-23" d="M499.53,206.77l1.67-1.43-1.67,1.43L419.25,287H419l-1.43,1.67L419,287h.24Z" transform="translate(-6.91)"></path> <path class="cls-24" d="M912.1,206.77l-80,80H992.14Z" transform="translate(-6.91)"></path> <path class="cls-25" d="M911.85,367.08l-5.47,5.48,5.47-5.48h0m-80-80h0l-5.48,5.48Z" transform="translate(-6.91)"></path> <path class="cls-26" d="M832.06,286.81h-.24l80,80.27,80.29-80.27Z" transform="translate(-6.91)"></path> </g> <g id="_2" data-name=" 2"> <path class="cls-27" d="M579.8,287l-80.28,80.28,126,126,59.8-79.08c13.57-16,1.87-13,2.34-18.44Z" transform="translate(-6.91)"></path> <path class="cls-28" d="M419,286.81h0l80.52-80.28-126-125.78L293.24,161Z" transform="translate(-6.91)"></path> </g> </svg> 